<svg xmlns="http://www.w3.org/2000/svg" xmlns:xlink="http://www.w3.org/1999/xlink" width="500" zoomAndPan="magnify" viewBox="0 0 375 374.999991" height="500" preserveAspectRatio="xMidYMid meet" version="1.0"><defs><clipPath id="id1"><path d="M 29.53125 89 L 154 89 L 154 200 L 29.53125 200 Z M 29.53125 89 " clip-rule="nonzero"/></clipPath></defs><path fill="rgb(100%, 100%, 100%)" d="M 98.035156 365.375 L 287.585938 365.375 C 285.132812 335.386719 259.957031 311.726562 229.363281 311.726562 L 156.257812 311.726562 C 125.664062 311.726562 100.488281 335.386719 98.035156 365.375 Z M 292.585938 374.988281 L 93.035156 374.988281 C 90.382812 374.988281 88.230469 372.835938 88.230469 370.183594 C 88.230469 332.648438 118.75 302.113281 156.257812 302.113281 L 229.363281 302.113281 C 266.871094 302.113281 297.390625 332.648438 297.390625 370.183594 C 297.390625 372.835938 295.238281 374.988281 292.585938 374.988281 " fill-opacity="1" fill-rule="nonzero"/><path fill="rgb(100%, 100%, 100%)" d="M 193.558594 310.316406 C 190.90625 310.316406 188.753906 308.164062 188.753906 305.511719 L 188.753906 252.941406 C 188.753906 218.929688 195.347656 185.757812 208.359375 154.335938 C 221.363281 122.914062 240.148438 94.789062 264.179688 70.742188 L 304.503906 30.394531 C 306.378906 28.519531 309.417969 28.519531 311.296875 30.394531 C 313.171875 32.273438 313.171875 35.316406 311.296875 37.195312 L 270.972656 77.539062 C 247.835938 100.6875 229.757812 127.765625 217.234375 158.011719 C 204.714844 188.261719 198.363281 220.199219 198.363281 252.941406 L 198.363281 305.511719 C 198.363281 308.164062 196.214844 310.316406 193.558594 310.316406 " fill-opacity="1" fill-rule="nonzero"/><path fill="rgb(100%, 100%, 100%)" d="M 193.839844 294.398438 C 191.1875 294.398438 189.035156 292.246094 189.035156 289.59375 L 189.035156 288.421875 C 189.035156 272.855469 186.015625 257.667969 180.0625 243.285156 C 174.109375 228.902344 165.511719 216.023438 154.507812 205.019531 L 88.53125 139 C 86.65625 137.121094 86.65625 134.078125 88.53125 132.199219 C 90.40625 130.324219 93.449219 130.324219 95.324219 132.199219 L 161.304688 198.21875 C 173.203125 210.125 182.5 224.050781 188.941406 239.605469 C 195.378906 255.160156 198.644531 271.585938 198.644531 288.421875 L 198.644531 289.59375 C 198.644531 292.246094 196.492188 294.398438 193.839844 294.398438 " fill-opacity="1" fill-rule="nonzero"/><path fill="rgb(100%, 100%, 100%)" d="M 332.902344 9.773438 C 326.863281 10.050781 314.6875 11.003906 300.667969 14.238281 C 282.578125 18.414062 257.585938 27.367188 241.234375 46.308594 C 214.253906 77.566406 218.84375 128.285156 220.796875 142.609375 C 226.828125 142.550781 239.195312 142.039062 253.4375 139.191406 C 265.101562 136.859375 275.730469 133.441406 285.023438 129.03125 C 296.460938 123.605469 305.886719 116.648438 313.035156 108.363281 L 316.671875 111.503906 L 313.035156 108.363281 C 329.335938 89.480469 333.730469 62.769531 334.539062 43.6875 C 335.179688 28.734375 333.78125 15.972656 332.902344 9.773438 Z M 219.789062 152.234375 C 217.8125 152.234375 216.648438 152.191406 216.472656 152.183594 C 214.242188 152.089844 212.375 150.472656 211.953125 148.28125 C 211.824219 147.589844 208.742188 131.085938 209.816406 109.539062 C 210.453125 96.828125 212.410156 84.996094 215.648438 74.371094 C 219.742188 60.914062 225.90625 49.359375 233.964844 40.027344 C 242 30.714844 252.46875 22.820312 265.078125 16.554688 C 275.042969 11.605469 286.371094 7.65625 298.742188 4.816406 C 319.714844 0.00390625 336.316406 0.0429688 337.015625 0.0429688 C 339.308594 0.0585938 341.269531 1.6875 341.707031 3.941406 C 341.84375 4.660156 345.066406 21.738281 344.152344 43.871094 C 343.609375 56.9375 341.722656 69.050781 338.542969 79.875 C 334.511719 93.601562 328.375 105.300781 320.308594 114.644531 C 312.25 123.980469 301.722656 131.761719 289.011719 137.777344 C 278.980469 142.527344 267.5625 146.1875 255.085938 148.664062 C 239.195312 151.820312 225.773438 152.234375 219.789062 152.234375 " fill-opacity="1" fill-rule="nonzero"/><g clip-path="url(#id1)"><path fill="rgb(100%, 100%, 100%)" d="M 39.480469 99.945312 C 39.75 104.996094 40.5625 114.253906 43.003906 124.820312 C 46.320312 139.183594 53.417969 159.023438 68.394531 171.972656 C 83.324219 184.871094 103.972656 188.484375 118.667969 189.242188 C 129.609375 189.804688 138.992188 188.914062 144.003906 188.261719 C 143.921875 183.207031 143.433594 173.789062 141.285156 163.035156 C 138.398438 148.601562 131.820312 128.6875 116.894531 115.785156 C 101.972656 102.894531 80.804688 99.40625 65.675781 98.761719 C 54.394531 98.273438 44.675781 99.246094 39.480469 99.945312 Z M 148.789062 192.398438 L 148.792969 192.398438 Z M 125.820312 199.035156 C 123.457031 199.035156 120.980469 198.980469 118.414062 198.855469 C 95.082031 197.691406 75.613281 190.910156 62.117188 179.246094 C 48.660156 167.613281 38.792969 149.460938 33.589844 126.75 C 29.707031 109.8125 29.734375 96.378906 29.738281 95.816406 C 29.75 93.523438 31.382812 91.558594 33.632812 91.125 C 34.214844 91.011719 48.007812 88.40625 65.859375 89.144531 C 76.410156 89.582031 86.195312 91.109375 94.949219 93.683594 C 106.082031 96.957031 115.578125 101.945312 123.171875 108.511719 C 136.667969 120.171875 146.207031 138.460938 150.75 161.390625 C 154.136719 178.464844 153.613281 192.03125 153.589844 192.601562 C 153.496094 194.832031 151.878906 196.707031 149.6875 197.121094 C 149.210938 197.214844 139.453125 199.035156 125.820312 199.035156 " fill-opacity="1" fill-rule="nonzero"/></g></svg>